# xmcd CD database file
# Copyright (C) 1995-1998 Ti Kan
#
# Track frame offsets:
#	150
#	14640
#	27625
#	47283
#	61355
#	69828
#	80213
#	92575
#	114293
#	129295
#	140903
#	164228
#	178473
#	199573
#	206563
#
# Disc length: 2992 seconds
#
# Revision: 2
# Processed by: cddbd v1.4PL0 Copyright (c) Steve Scherf et al.
# Submitted via: CDex 1.40Beta3
#
DISCID=dc0bae0f
DTITLE=Kaiser Mansfield - Trimmed And Burnin'
DYEAR=1990
DGENRE=Blues
TTITLE0=Great Change Since I've Been Born
TTITLE1=Keep Your Lamp Trimmed and Burnin'
TTITLE2=Shaky Ground
TTITLE3=Nobody's Fault but Mine
TTITLE4=Go Tell Pharaoh
TTITLE5=You Got to Move
TTITLE6=In the Light of the Morning Star
TTITLE7=Celestial Shore
TTITLE8=Jesus Is Comin' Soon
TTITLE9=God Don't Never Change
TTITLE10=What You Did
TTITLE11=I Belong to the Band
TTITLE12=You Got to Die
TTITLE13=Cornerstone
TTITLE14=We Shall See The King
EXTD=YEAR: 1990 ID3G:   0
EXTT0=
EXTT1=
EXTT2=
EXTT3=
EXTT4=
EXTT5=
EXTT6=
EXTT7=
EXTT8=
EXTT9=
EXTT10=
EXTT11=
EXTT12=
EXTT13=
EXTT14=
PLAYORDER=
